<svg width="157" height="218" viewBox="0 0 157 218" fill="none" xmlns="http://www.w3.org/2000/svg">
<path d="M78.4766 217.629C77.9876 216.441 67.828 206.506 60.5527 197.478C17.4494 140.25 -30.6075 87.077 25.5079 22.4578C50.3546 -1.5474 80.9923 -2.91683 112.489 8.27249C201.175 59.5909 136.965 143.308 94.8043 198.342L78.4766 217.629ZM105.154 129.907C164.308 87.6031 118.576 6.14125 53.5835 33.2222C34.6051 43.3416 25.1883 60.9488 24.8585 81.717C23.9523 101.92 34.6817 118.814 51.6844 129.163C63.8747 135.798 69.2338 136.996 83.0362 136.174C91.982 135.641 97.1369 134.18 105.154 129.907Z" fill="#4285F4"/>
<path d="M61.5218 150.104C41.4432 145.925 23.8736 134.16 12.6485 117.379C1.42331 100.597 -2.54576 80.162 1.60768 60.5338C5.76113 40.9055 17.6998 23.6785 34.8174 12.6133C51.9351 1.54807 72.8415 -2.4566 92.9728 1.47348C113.104 5.40357 130.825 16.9492 142.268 33.59C153.711 50.2308 157.946 70.6152 154.048 90.2935C150.15 109.972 138.437 127.345 121.465 138.622C104.493 149.899 83.6399 154.163 63.459 150.483" fill="#4285F4"/>
<path d="M67.9297 125.843C55.7438 123.188 45.0806 115.714 38.2679 105.053C31.4552 94.3923 29.0463 81.4102 31.5671 68.9407C34.0879 56.4713 41.3336 45.5273 51.7225 38.4978C62.1114 31.4683 74.7998 28.9242 87.0177 31.4209C99.2357 33.9176 109.991 41.2523 116.936 51.8239C123.88 62.3955 126.451 75.3453 124.085 87.8464C121.72 100.348 114.61 111.385 104.31 118.549C94.0092 125.712 81.3535 128.421 69.1055 126.083" fill="white"/>
<path fill-rule="evenodd" clip-rule="evenodd" d="M88.5595 109.046H100.044C100.044 107.413 99.9273 107.089 97.2236 107.089C97.6555 105.793 99.4112 102.658 100.387 102.658C101.25 102.658 102.28 102.706 102.28 104.676C102.28 106.911 106.042 110.516 106.955 109.046C108.314 106.854 104.617 107.522 104.617 102.236C104.617 95.0049 108.838 96.0344 108.838 91.9716C108.838 89.9389 108.276 89.6644 108.276 88.2112C108.276 86.2906 109.968 86.402 109.639 84.8096C109.411 83.7096 109.233 82.8275 109.101 81.4973C109.007 80.5535 108.977 79.5476 107.996 79.588C106.845 79.6355 106.408 81.663 104.617 81.8084C102.831 81.9535 101.307 80.2873 100.616 80.5253C99.9298 80.7613 100.145 82.6214 100.552 83.9427C101.191 86.0192 102.585 88.7194 100.044 89.1259C97.5031 89.5324 93.1329 89.9389 89.9823 94.1058C86.8317 98.2727 86.948 103.163 85.7138 104.676C81.5715 109.752 77.3266 107.668 77.3266 111.891C77.3266 113.782 80.5306 115.144 81.0387 114.534C81.5469 113.924 76.7209 112.107 82.1208 109.96C86.734 108.126 87.1458 107.752 88.5595 109.046Z" fill="black"/>
<path d="M56.6146 46.3183C56.9508 46.6204 57.1893 47.0925 57.5822 48.1663C57.8643 48.9583 58.222 49.8853 58.3843 50.2223L58.6715 50.8416L59.5704 50.9744C60.7612 51.1296 60.7477 51.1293 61.6025 50.9553C62.2709 50.8024 62.4745 50.6626 63.9633 49.2725C65.6299 47.7153 67.0406 46.7081 67.369 46.8371C67.9459 47.0802 67.918 48.9121 67.2809 52.0406C66.7842 54.4563 66.7264 54.6139 65.4958 56.6885L64.9922 57.5498L65.2735 58.8067C65.638 60.3978 65.8093 62.674 65.6545 63.8513C65.5492 64.7114 65.5599 64.7914 65.9045 65.2666C66.0954 65.5514 66.8276 66.3698 67.5104 67.0804C68.7215 68.3385 68.7726 68.4061 69.0221 69.383C69.4245 71.0283 69.552 71.2049 71.1252 72.3539C72.1256 73.1006 72.7074 73.636 73.1149 74.2193C73.8674 75.2643 74.8329 76.289 76.3715 77.6896C77.8847 79.0492 80.6092 82.1183 81.4982 83.473C83.2139 86.0607 84.5766 88.93 85.6721 92.2693L86.2076 93.9056L85.9931 94.8687C85.8233 95.6602 85.7968 96.1114 85.8835 97.2292C85.9723 98.2674 85.9582 98.7455 85.8253 99.1794C85.5743 100.022 85.5791 100.752 85.8548 101.305C86.0556 101.696 86.064 101.869 85.9489 102.171C85.6892 102.867 85.2448 103.067 84.064 103.031C82.7635 102.993 79.8517 103.106 76.8845 103.296C74.8216 103.434 74.6359 103.428 74.3235 103.22C74.1543 103.096 73.9757 102.851 73.9282 102.663C73.8347 102.236 73.3706 102.208 72.4571 102.567C71.866 102.801 71.4138 102.828 66.7658 102.809L61.7331 102.792L61.4637 102.466C61.3236 102.276 60.9864 101.986 60.7259 101.819L60.2434 101.513L60.0803 102.079C59.886 102.817 59.5075 103.483 59.2512 103.608C58.9012 103.771 54.6643 103.777 54.2711 103.607C53.7594 103.392 53.7404 103.14 54.1693 102.13C54.5973 101.133 54.9117 100.837 55.5484 100.856C56.2382 100.877 56.8199 100.084 57.7226 97.866C57.9658 97.2891 58.033 96.8131 58.0855 95.4865C58.1257 94.5713 58.2176 93.2859 58.29 92.6372L58.4198 91.4462L58.0493 92.2985C57.8358 92.7701 57.3609 94.0175 56.9705 95.0816C56.2313 97.1579 55.7397 98.0732 55.1983 98.4022C55.009 98.5164 54.6083 99.0355 54.2875 99.5441C53.9667 100.053 53.2735 101.041 52.7485 101.729L51.7813 103.002L50.4417 102.949C49.6989 102.927 48.5992 102.841 47.99 102.77C47.0642 102.65 46.8268 102.576 46.6357 102.318C46.2523 101.815 46.3687 101.473 47.1737 100.754L47.9101 100.098L49.0637 100.159L50.2039 100.233L50.6842 99.716C51.3019 99.044 52.6532 96.9192 52.7474 96.4305C52.7929 96.2324 52.7929 95.7946 52.7367 95.4607C52.6721 94.9543 52.7345 94.6369 53.1267 93.5198C53.375 92.7701 53.6687 91.823 53.7605 91.4138C54.0843 89.9094 54.4174 87.1837 54.4639 85.6179C54.5397 83.0705 54.4244 82.4823 53.4382 80.3683C51.8036 76.8401 51.6483 75.8129 52.3861 73.3247C53.2144 70.494 53.803 65.4252 53.5501 63.2132C53.4777 62.5336 53.4926 62.0296 53.6122 61.5817C53.7947 60.8036 53.7314 60.709 52.6714 60.1594C52.1749 59.8921 51.6184 59.3976 50.8604 58.5384C49.7813 57.3244 49.7557 57.2705 49.6857 56.5113C49.6592 56.0722 49.5712 55.4588 49.5145 55.1249C49.365 54.3369 49.5508 53.904 50.1298 53.6427C50.6814 53.4066 52.0415 53.2081 52.9972 53.2365C53.5678 53.2533 53.7016 53.2177 53.7072 53.0316C53.7111 52.9126 53.8505 52.6771 54.0152 52.4961C54.3157 52.213 54.3344 52.0406 54.4636 49.9197C54.5898 47.9178 54.6399 47.5611 54.9226 46.9848C55.5288 45.7684 55.8783 45.619 56.6146 46.3183ZM63.2169 90.911C62.9172 91.6061 62.1272 94.9554 61.9879 96.067C61.8282 97.4301 61.5747 98.3525 61.3137 98.6368C61.0808 98.8688 60.558 99.9425 60.5377 100.167C60.5345 100.273 60.6285 100.25 60.7924 100.095C60.929 99.9664 61.3598 99.7669 61.7487 99.6457C62.4186 99.4396 62.5118 99.4424 63.4607 99.6967C64.2912 99.9072 64.8876 99.9515 66.8529 99.9569C69.535 99.97 70.1762 99.8562 70.3099 99.3693C70.5023 98.7112 70.2596 97.947 69.3766 96.3665C68.8842 95.5021 68.2196 94.1807 67.8964 93.4406L67.3 92.068L66.2774 91.6128C65.4391 91.2291 63.8617 90.6777 63.4388 90.612C63.385 90.597 63.2745 90.7404 63.2169 90.911Z" fill="black"/>
</svg>
